# xmcd
#
# Track frame offsets:
#	183
#	27033
#	50545
#	108433
#	128908
#	147720
#
# Disc length: 2823 seconds
#
# Revision: 13
# Processed by: cddbd v1.5.2PL0 Copyright (c) Steve Scherf et al.
# Submitted via: audiograbber 1.83.01
#
DISCID=530b0506
DTITLE=Status Quo - Status Quo Live [CD 2)
DYEAR=1977
DGENRE=Rock
TTITLE0=Roll Over Lay Down [live]
TTITLE1=Big Fat Mama [live]
TTITLE2=a) Caroline  b) Bye Bye Johnny [live]
TTITLE3=Rain [live]
TTITLE4=Don't Waste My Time [live]
TTITLE5=Roadhouse Blues [live]
EXTD=
EXTT0=
EXTT1=
EXTT2=
EXTT3=
EXTT4=
EXTT5=
PLAYORDER=
